<mxfile host="app.diagrams.net" agent="Mozilla/5.0 (Macintosh; Intel Mac OS X 10_15_7) AppleWebKit/537.36 (KHTML, like Gecko) Chrome/132.0.0.0 Safari/537.36" version="26.0.11">
  <diagram name="Page-1" id="c7558073-3199-34d8-9f00-42111426c3f3">
    <mxGraphModel dx="1620" dy="1061" grid="1" gridSize="10" guides="1" tooltips="1" connect="1" arrows="1" fold="1" page="1" pageScale="1" pageWidth="826" pageHeight="1169" background="none" math="0" shadow="0">
      <root>
        <mxCell id="0" />
        <mxCell id="1" parent="0" />
        <mxCell id="HdUNvM5hjxClGUT3ly5O-130" value="" style="rounded=1;whiteSpace=wrap;html=1;fillColor=#d5e8d4;strokeColor=#82b366;" vertex="1" parent="1">
          <mxGeometry x="-80" y="570" width="630" height="135" as="geometry" />
        </mxCell>
        <mxCell id="HdUNvM5hjxClGUT3ly5O-128" value="" style="rounded=1;whiteSpace=wrap;html=1;fillColor=#dae8fc;strokeColor=#6c8ebf;" vertex="1" parent="1">
          <mxGeometry x="50" y="720" width="390" height="140" as="geometry" />
        </mxCell>
        <mxCell id="HdUNvM5hjxClGUT3ly5O-109" value="Developer" style="whiteSpace=wrap;align=center;verticalAlign=middle;fontStyle=1;strokeWidth=3;fillColor=#ffe6cc;strokeColor=#d79b00;" vertex="1" parent="1">
          <mxGeometry x="40" y="440" width="90" height="60" as="geometry" />
        </mxCell>
        <mxCell id="HdUNvM5hjxClGUT3ly5O-110" value="GitHub Repository" style="whiteSpace=wrap;align=center;verticalAlign=middle;fontStyle=1;strokeWidth=3;fillColor=#FFFFCC" vertex="1" parent="1">
          <mxGeometry x="200" y="440" width="90" height="60" as="geometry" />
        </mxCell>
        <mxCell id="HdUNvM5hjxClGUT3ly5O-111" value="GitHub&#xa;Actions" style="whiteSpace=wrap;align=center;verticalAlign=middle;fontStyle=1;strokeWidth=3;fillColor=#FFFFCC" vertex="1" parent="1">
          <mxGeometry x="360" y="440" width="90" height="60" as="geometry" />
        </mxCell>
        <mxCell id="HdUNvM5hjxClGUT3ly5O-112" value="Build App" style="whiteSpace=wrap;align=center;verticalAlign=middle;fontStyle=1;strokeWidth=3;fillColor=#d5e8d4;strokeColor=#82b366;" vertex="1" parent="1">
          <mxGeometry x="-50" y="595" width="90" height="60" as="geometry" />
        </mxCell>
        <mxCell id="HdUNvM5hjxClGUT3ly5O-113" value="Run Unit Tests" style="whiteSpace=wrap;align=center;verticalAlign=middle;fontStyle=1;strokeWidth=3;fillColor=#d5e8d4;strokeColor=#82b366;" vertex="1" parent="1">
          <mxGeometry x="70" y="595" width="90" height="60" as="geometry" />
        </mxCell>
        <mxCell id="HdUNvM5hjxClGUT3ly5O-116" value="Deploy&#xa;Dev" style="whiteSpace=wrap;align=center;verticalAlign=middle;fontStyle=1;strokeWidth=3;fillColor=#dae8fc;strokeColor=#6c8ebf;" vertex="1" parent="1">
          <mxGeometry x="80" y="750" width="90" height="60" as="geometry" />
        </mxCell>
        <mxCell id="HdUNvM5hjxClGUT3ly5O-117" value="Build Docker Image." style="whiteSpace=wrap;align=center;verticalAlign=middle;fontStyle=1;strokeWidth=3;fillColor=#d5e8d4;strokeColor=#82b366;" vertex="1" parent="1">
          <mxGeometry x="308" y="595" width="90" height="60" as="geometry" />
        </mxCell>
        <mxCell id="HdUNvM5hjxClGUT3ly5O-118" value="Push Image to Registry" style="whiteSpace=wrap;align=center;verticalAlign=middle;fontStyle=1;strokeWidth=3;fillColor=#d5e8d4;strokeColor=#82b366;" vertex="1" parent="1">
          <mxGeometry x="430" y="595" width="90" height="60" as="geometry" />
        </mxCell>
        <mxCell id="HdUNvM5hjxClGUT3ly5O-119" value="" style="edgeStyle=none;noEdgeStyle=1;strokeColor=#990000;strokeWidth=2;entryX=0;entryY=0.5;entryDx=0;entryDy=0;exitX=1;exitY=0.5;exitDx=0;exitDy=0;" edge="1" parent="1" source="HdUNvM5hjxClGUT3ly5O-109" target="HdUNvM5hjxClGUT3ly5O-110">
          <mxGeometry width="100" height="100" relative="1" as="geometry">
            <mxPoint x="473" y="840" as="sourcePoint" />
            <mxPoint x="368" y="940" as="targetPoint" />
            <Array as="points" />
          </mxGeometry>
        </mxCell>
        <mxCell id="HdUNvM5hjxClGUT3ly5O-121" value="" style="edgeStyle=none;noEdgeStyle=1;strokeColor=#990000;strokeWidth=2;entryX=0;entryY=0.5;entryDx=0;entryDy=0;exitX=1;exitY=0.5;exitDx=0;exitDy=0;" edge="1" parent="1">
          <mxGeometry width="100" height="100" relative="1" as="geometry">
            <mxPoint x="290" y="469.5" as="sourcePoint" />
            <mxPoint x="360" y="469.5" as="targetPoint" />
            <Array as="points" />
          </mxGeometry>
        </mxCell>
        <mxCell id="HdUNvM5hjxClGUT3ly5O-122" value="Run Integration Tests" style="whiteSpace=wrap;align=center;verticalAlign=middle;fontStyle=1;strokeWidth=3;fillColor=#d5e8d4;strokeColor=#82b366;" vertex="1" parent="1">
          <mxGeometry x="188" y="595" width="90" height="60" as="geometry" />
        </mxCell>
        <mxCell id="HdUNvM5hjxClGUT3ly5O-125" value="Deploy&#xa;Staging" style="whiteSpace=wrap;align=center;verticalAlign=middle;fontStyle=1;strokeWidth=3;fillColor=#dae8fc;strokeColor=#6c8ebf;" vertex="1" parent="1">
          <mxGeometry x="200" y="750" width="90" height="60" as="geometry" />
        </mxCell>
        <mxCell id="HdUNvM5hjxClGUT3ly5O-126" value="Deploy&#xa;Production" style="whiteSpace=wrap;align=center;verticalAlign=middle;fontStyle=1;strokeWidth=3;fillColor=#dae8fc;strokeColor=#6c8ebf;" vertex="1" parent="1">
          <mxGeometry x="320" y="750" width="90" height="60" as="geometry" />
        </mxCell>
        <mxCell id="HdUNvM5hjxClGUT3ly5O-129" value="&lt;b&gt;CD PIPELINE&lt;/b&gt;" style="text;html=1;align=center;verticalAlign=middle;whiteSpace=wrap;rounded=0;" vertex="1" parent="1">
          <mxGeometry x="135" y="820" width="220" height="30" as="geometry" />
        </mxCell>
        <mxCell id="HdUNvM5hjxClGUT3ly5O-131" value="&lt;b&gt;CI PIPELINE&lt;/b&gt;" style="text;html=1;align=center;verticalAlign=middle;whiteSpace=wrap;rounded=0;" vertex="1" parent="1">
          <mxGeometry x="135" y="665" width="220" height="30" as="geometry" />
        </mxCell>
        <mxCell id="HdUNvM5hjxClGUT3ly5O-133" value="Developer pushes&#xa;changes to Repository" style="text;spacingTop=-5;align=center" vertex="1" parent="1">
          <mxGeometry x="70" y="510" width="30" height="20" as="geometry" />
        </mxCell>
        <mxCell id="HdUNvM5hjxClGUT3ly5O-134" value="Event triggers Workflow" style="text;spacingTop=-5;align=center" vertex="1" parent="1">
          <mxGeometry x="240" y="510" width="30" height="20" as="geometry" />
        </mxCell>
        <mxCell id="HdUNvM5hjxClGUT3ly5O-135" value="" style="edgeStyle=none;noEdgeStyle=1;strokeColor=#990000;strokeWidth=2;entryX=0.933;entryY=-0.029;entryDx=0;entryDy=0;exitX=1;exitY=0.5;exitDx=0;exitDy=0;entryPerimeter=0;" edge="1" parent="1" source="HdUNvM5hjxClGUT3ly5O-111" target="HdUNvM5hjxClGUT3ly5O-130">
          <mxGeometry width="100" height="100" relative="1" as="geometry">
            <mxPoint x="300" y="479.5" as="sourcePoint" />
            <mxPoint x="370" y="479.5" as="targetPoint" />
            <Array as="points">
              <mxPoint x="510" y="470" />
            </Array>
          </mxGeometry>
        </mxCell>
        <mxCell id="HdUNvM5hjxClGUT3ly5O-136" value="" style="edgeStyle=none;noEdgeStyle=1;strokeColor=#990000;strokeWidth=2;entryX=0;entryY=0.5;entryDx=0;entryDy=0;exitX=0.103;exitY=0.996;exitDx=0;exitDy=0;exitPerimeter=0;" edge="1" parent="1" source="HdUNvM5hjxClGUT3ly5O-130" target="HdUNvM5hjxClGUT3ly5O-128">
          <mxGeometry width="100" height="100" relative="1" as="geometry">
            <mxPoint x="460" y="480" as="sourcePoint" />
            <mxPoint x="519" y="592" as="targetPoint" />
            <Array as="points">
              <mxPoint x="-15" y="790" />
            </Array>
          </mxGeometry>
        </mxCell>
      </root>
    </mxGraphModel>
  </diagram>
</mxfile>
